<?xml version="1.0" encoding="UTF-8" standalone="no"?>
<svg
   xmlns:dc="http://purl.org/dc/elements/1.1/"
   xmlns:cc="http://creativecommons.org/ns#"
   xmlns:rdf="http://www.w3.org/1999/02/22-rdf-syntax-ns#"
   xmlns:svg="http://www.w3.org/2000/svg"
   xmlns="http://www.w3.org/2000/svg"
   xmlns:sodipodi="http://sodipodi.sourceforge.net/DTD/sodipodi-0.dtd"
   xmlns:inkscape="http://www.inkscape.org/namespaces/inkscape"
   id="Layer_1"
   data-name="Layer 1"
   viewBox="0 0 70.039997 68.94"
   version="1.1"
   sodipodi:docname="saltstack.svg"
   width="70.040001"
   height="68.940002"
   inkscape:version="0.92.2 (5c3e80d, 2017-08-06)">
  <metadata
     id="metadata31">
    <rdf:RDF>
      <cc:Work
         rdf:about="">
        <dc:format>image/svg+xml</dc:format>
        <dc:type
           rdf:resource="http://purl.org/dc/dcmitype/StillImage" />
        <dc:title>SaltStack - White</dc:title>
      </cc:Work>
    </rdf:RDF>
  </metadata>
  <sodipodi:namedview
     pagecolor="#ffffff"
     bordercolor="#666666"
     borderopacity="1"
     objecttolerance="10"
     gridtolerance="10"
     guidetolerance="10"
     inkscape:pageopacity="0"
     inkscape:pageshadow="2"
     inkscape:window-width="1920"
     inkscape:window-height="1016"
     id="namedview29"
     showgrid="false"
     fit-margin-top="5"
     fit-margin-left="5"
     fit-margin-right="5"
     fit-margin-bottom="5"
     inkscape:zoom="1.8661323"
     inkscape:cx="-1.0319282"
     inkscape:cy="-2.9971423"
     inkscape:window-x="0"
     inkscape:window-y="27"
     inkscape:window-maximized="1"
     inkscape:current-layer="g4537" />
  <defs
     id="defs4">
    <style
       id="style2">.cls-1{fill:#fff;}</style>
  </defs>
  <title
     id="title6">SaltStack - White</title>
  <g
     id="g4537"
     style="fill:#000000;fill-opacity:1"
     transform="translate(5.01,5)">
    <path
       id="path26"
       transform="translate(-4.23,-4.49)"
       d="m 64.26,13.35 -15.34,-8.86 -10.84,6.26 -8.86,-5 -25,14.43 V 49 l 25,14.43 25,-14.43 V 36.85 l 10,-5.8 V 13.35 Z M 60,14.17 49,20.55 38,14.17 49,7.79 Z m -28.19,6.76 1.78,-1 v 2 L 32.85,21.5 v 0 z m 4.64,-4.28 11,6.38 V 35.74 L 42.32,32.68 V 27 L 36.4,23.58 v -7 z m 5.91,19.35 4,2.39 -4,2.31 z M 29.23,8.71 35.5,12.24 33.58,13.35 V 17 l -6.94,3.93 3.43,2 8.45,4.88 -9.3,5.37 L 8.07,20.92 Z M 6.79,23.14 27.95,35.35 V 59.78 L 6.79,47.57 Z M 51.66,47.57 30.51,59.78 V 35.35 L 39.8,30 v 15.15 l 9.08,-5.24 v 0 l 2.75,-1.59 v 9.23 z M 50.35,35.78 V 23 l 11,-6.38 V 29.4 Z"
       class="cls-1"
       style="fill:#000000;fill-opacity:1"
       inkscape:connector-curvature="0" />
  </g>
</svg>
